<?xml version="1.0" encoding="UTF-8"?>
<!DOCTYPE svg PUBLIC "-//W3C//DTD SVG 1.1//EN" "http://www.w3.org/Graphics/SVG/1.1/DTD/svg11.dtd">
<svg xmlns="http://www.w3.org/2000/svg" version="1.1" width="700px" height="485px" style="shape-rendering:geometricPrecision; text-rendering:geometricPrecision; image-rendering:optimizeQuality; fill-rule:evenodd; clip-rule:evenodd" xmlns:xlink="http://www.w3.org/1999/xlink">
<g><path style="opacity:0.946" fill="#1e2e71" d="M 315.5,40.5 C 344.163,38.2217 372.163,41.3884 399.5,50C 324.446,34.6848 261.613,55.5182 211,112.5C 165.679,172.187 157.512,236.687 186.5,306C 169.073,301.69 152.073,295.857 135.5,288.5C 121.007,213.816 140.674,149.649 194.5,96C 228.826,64.5052 269.159,46.0052 315.5,40.5 Z"/></g>
<g><path style="opacity:0.986" fill="#1e2e71" d="M 448.5,145.5 C 487.5,144.572 516,161.239 534,195.5C 537.346,203.206 539.68,211.206 541,219.5C 545.938,258.267 540.438,295.434 524.5,331C 506.615,334.636 488.615,336.469 470.5,336.5C 474.753,329.663 478.753,322.663 482.5,315.5C 448.02,324.004 417.854,316.004 392,291.5C 365.715,259.269 362.049,224.602 381,187.5C 396.753,162.705 419.253,148.705 448.5,145.5 Z"/></g>
<g><path style="opacity:0.966" fill="#f0c944" d="M 97.5,191.5 C 98.8734,191.343 100.207,191.51 101.5,192C 95.6124,194.52 89.6124,196.853 83.5,199C 60.3727,211.069 54.206,228.902 65,252.5C 75.3398,263.838 87.1732,273.338 100.5,281C 143.215,303.017 188.215,318.684 235.5,328C 326.767,347.552 418.767,352.219 511.5,342C 541.787,338.513 570.787,330.513 598.5,318C 606.055,313.986 612.221,308.486 617,301.5C 618.014,296.187 616.681,291.52 613,287.5C 599.434,273.547 583.768,262.547 566,254.5C 565.761,236.952 564.094,219.619 561,202.5C 585.261,212.469 607.761,225.302 628.5,241C 641.873,252.022 651.706,265.522 658,281.5C 664.302,308.731 656.136,330.565 633.5,347C 608.448,363.022 581.115,373.356 551.5,378C 426.51,395.642 303.51,386.309 182.5,350C 148.875,340.018 116.875,326.351 86.5,309C 70.5093,299.68 57.0093,287.513 46,272.5C 29.1342,243.123 34.9676,219.623 63.5,202C 74.4246,196.744 85.7579,193.244 97.5,191.5 Z"/></g>
<g><path style="opacity:0.968" fill="#1e2e71" d="M 159.5,351.5 C 184.836,359.777 210.502,366.944 236.5,373C 285.876,409.958 339.542,417.625 397.5,396C 424.497,396.584 451.497,396.584 478.5,396C 430.77,439.908 374.437,458.242 309.5,451C 251.148,442.252 204.315,414.419 169,367.5C 165.559,362.276 162.392,356.943 159.5,351.5 Z"/></g>
</svg>
